# xmcd
#
# Track frame offsets: 
#        150
#        16179
#        34757
#        54310
#        73714
#        100467
#        135621
#        156524
#        181328
#        209282
#        246685
#
# Disc length: 3803 seconds
#
# Revision: 0
# Processed by: cddbd v1.5.2PL0 Copyright (c) Steve Scherf et al.
# Submitted via: ExactAudioCopy v1.0b4
#
DISCID=9e0ed90b
DTITLE=Gugun Power Trio - Solid Ground
DYEAR=2011
DGENRE=Blues Rock
TTITLE0=Solid Ground
TTITLE1=One Heavy Night
TTITLE2=Soul On Fire
TTITLE3=Vixen Eyes
TTITLE4=Mission
TTITLE5=ТрекTrampled Rose06
TTITLE6=Silent Rider
TTITLE7=I'm Juicy
TTITLE8=Funky Chicken
TTITLE9=Marching Strut
TTITLE10=Crystal Mountains (Bonus Track)
EXTD=
EXTT0=
EXTT1=
EXTT2=
EXTT3=
EXTT4=
EXTT5=
EXTT6=
EXTT7=
EXTT8=
EXTT9=
EXTT10=
PLAYORDER=
